# xmcd
#
# Track frame offsets:
#	150
#	17133
#	31210
#	48353
#	65902
#	81249
#	95530
#	109788
#	123858
#	140382
#
# Disc length: 2098 seconds
#
# Revision: 1
# Processed by: cddbd v1.5.2PL0 Copyright (c) Steve Scherf et al.
# Submitted via: audiograbber 1.83.01
#
DISCID=8308300a
DTITLE=Montgomery Gentry - Folks Like Us
DYEAR=2015
DGENRE=Country
TTITLE0=We Were Here
TTITLE1=Headlights
TTITLE2=In a Small Town
TTITLE3=Back on a Dirt Road
TTITLE4=Two Old Friends
TTITLE5=Folks Like Us
TTITLE6=Pain
TTITLE7=Hillbilly Hippies
TTITLE8=Better for It
TTITLE9=That's Just Living
EXTD=
EXTT0=
EXTT1=
EXTT2=
EXTT3=
EXTT4=
EXTT5=
EXTT6=
EXTT7=
EXTT8=
EXTT9=
PLAYORDER=
